<svg fill="none" height="512" viewBox="0 0 24 24" width="512" xmlns="http://www.w3.org/2000/svg"><g clip-rule="evenodd" fill-rule="evenodd"><path d="m20.75 6c0 .41421-.3358.75-.75.75h-16c-.41421 0-.75-.33579-.75-.75s.33579-.75.75-.75h16c.4142 0 .75.33579.75.75z" fill="#3747d6"/><path d="m20.75 12c0 .4142-.3358.75-.75.75h-16c-.41421 0-.75-.3358-.75-.75s.33579-.75.75-.75h16c.4142 0 .75.3358.75.75z" fill="#9545ed"/><path d="m20.75 18c0 .4142-.3358.75-.75.75h-16c-.41421 0-.75-.3358-.75-.75s.33579-.75.75-.75h16c.4142 0 .75.3358.75.75z" fill="#3747d6"/></g></svg>